<?xml version="1.0" encoding="utf-8"?>
<!-- Generator: Adobe Illustrator 22.0.1, SVG Export Plug-In . SVG Version: 6.00 Build 0)  -->
<svg version="1.1" id="Layer_1" xmlns="http://www.w3.org/2000/svg" xmlns:xlink="http://www.w3.org/1999/xlink" x="0px" y="0px"
	 viewBox="0 0 93.7 94.4" style="enable-background:new 0 0 93.7 94.4;" xml:space="preserve">
<title>KYC</title>
<path d="M46.5,84.4c1.4,0,2.5-1.1,2.5-2.5s-1.1-2.5-2.5-2.5c-0.9,0-1.7,0-2.6-0.1C28.2,78,15.7,65.6,14.5,49.9
	c-0.1-0.9-0.1-1.7-0.1-2.6c0-1.4-1.1-2.5-2.5-2.5s-2.5,1.1-2.5,2.5C9.4,67.8,26,84.4,46.5,84.4z"/>
<path d="M46.5,10c-1.4,0-2.5,1.1-2.5,2.5c0,1.4,1.1,2.5,2.5,2.5c0.9,0,1.7,0,2.6,0.1c15.7,1.3,28.1,13.7,29.4,29.4
	c0.1,0.9,0.1,1.7,0.1,2.6c0,1.4,1.1,2.5,2.5,2.5s2.5-1.1,2.5-2.5C83.6,26.6,67,10,46.5,10C46.5,10,46.5,10,46.5,10z"/>
<path d="M37.5,72.8c2.9,1,6,1.6,9.1,1.6c1.4,0,2.5-1.1,2.5-2.5c0,0,0,0,0,0c0-0.7-0.3-1.3-0.7-1.8c-0.5-0.5-1.1-0.7-1.8-0.7
	c-12.3,0.1-22.2-9.8-22.3-22.1S34.1,25.1,46.4,25s22.2,9.8,22.3,22.1c0,0,0,0.1,0,0.1c0,0.7,0.3,1.3,0.7,1.8
	c0.5,0.5,1.1,0.7,1.8,0.7c1.4,0,2.5-1.1,2.5-2.5c0,0,0,0,0,0c0-3.1-0.6-6.2-1.6-9.1C67,24,51.5,16.5,37.4,21.6
	c-10.9,3.8-18.1,14.1-18.1,25.6C19.3,58.7,26.6,69,37.5,72.8z"/>
<path d="M38.5,16.1c1.3-0.3,2.1-1.7,1.8-3s-1.7-2.1-3-1.8l0,0c-9.6,2.5-17.9,8.7-22.9,17.3c-0.7,1.2-0.3,2.7,0.9,3.4c0,0,0,0,0,0
	c0.4,0.2,0.8,0.3,1.3,0.3c0.9,0,1.7-0.4,2.2-1.2c1.5-2.7,3.4-5.1,5.6-7.1c1.8-1.7,3.7-3.2,5.8-4.4C32.7,18,35.5,16.8,38.5,16.1z"/>
<path d="M58.9,82.9c0.3,0,0.6-0.1,0.9-0.2c11.5-4.3,20.1-13.9,23.1-25.8c0.3-1.3-0.5-2.7-1.8-3c-1.3-0.3-2.7,0.5-3,1.8
	c-0.5,1.9-1.1,3.7-1.9,5.5c-2.7,6-7.2,11-12.8,14.3c-1.7,1-3.4,1.8-5.2,2.5c-1.3,0.5-1.9,1.9-1.5,3.2C56.9,82.2,57.8,82.9,58.9,82.9
	z"/>
<path d="M57,69.7c0.4,0.7,1.2,1.2,2.1,1.2c0.5,0,0.9-0.1,1.3-0.4c3.7-2.2,6.9-5.3,9.1-9c0.7-1.2,0.3-2.7-0.8-3.4
	c-1.1-0.7-2.6-0.3-3.4,0.8c-1.9,3-4.4,5.5-7.4,7.3C56.7,66.9,56.3,68.5,57,69.7z"/>
<path d="M14.1,19c0.7,0,1.3-0.3,1.8-0.8c1.2-1.3,2.5-2.5,3.8-3.6C27.2,8.4,36.6,5,46.4,5c0.8,0,1.6,0,2.4,0.1
	c1.7,0.1,3.5,0.3,5.2,0.6c1.3,0.3,2.6-0.6,2.9-1.9c0,0,0-0.1,0-0.1c0.2-1.3-0.7-2.6-2-2.9C52.1,0.3,49.2,0,46.4,0
	C33.4-0.1,21,5.3,12.2,14.7c-0.9,0.9-0.9,2.5,0,3.4c0,0,0.1,0.1,0.1,0.1C12.7,18.7,13.4,19,14.1,19z"/>
<path d="M64.9,3.8c-1.3-0.5-2.7,0.1-3.3,1.3c-0.5,1.3,0.1,2.7,1.3,3.3c15.6,6.5,25.8,21.8,25.8,38.8c0,1.4,1.1,2.5,2.5,2.5
	s2.5-1.1,2.5-2.5C93.7,28.3,82.3,11.1,64.9,3.8z"/>
<path d="M46.5,94.4c1.4,0,2.5-1.1,2.5-2.5s-1.1-2.5-2.5-2.5C26.1,89.4,8.6,74.8,5,54.8c-0.2-1.3-1.4-2.2-2.7-2c-0.1,0-0.1,0-0.2,0
	c-1.3,0.2-2.2,1.4-2,2.7c0,0.1,0,0.1,0,0.2C4.2,78.1,23.7,94.4,46.5,94.4z"/>
<path d="M34.5,45.3l5.9,7.3v0.2h-3.8L31,45.7v7.1h-3V38.6h3v6.6l5.5-6.6h3.6v0.2L34.5,45.3z"/>
<path d="M54.3,38.6v0.2L49,46.9v5.9h-3v-5.9l-5.1-8.2v-0.2h3.5l3.2,5.5l3.3-5.5h3.4V38.6z"/>
<path d="M56.1,51.1c-1.2-1.5-1.8-3.4-1.7-5.3c-0.1-1.5,0.2-3,0.9-4.4c0.5-1.1,1.4-1.9,2.5-2.4c1.1-0.5,2.2-0.7,3.4-0.7
	c0.8,0,1.7,0.1,2.5,0.3c0.8,0.2,1.5,0.5,2.2,1l-1.2,2.3c-1-0.7-2.2-1-3.4-1c-2.5,0-3.7,1.6-3.7,4.8c-0.1,1.3,0.2,2.6,1,3.6
	c0.7,0.8,1.8,1.3,2.9,1.2c0.6,0,1.2-0.1,1.7-0.3c0.5-0.2,1-0.4,1.5-0.7l1.2,2.2c-0.7,0.4-1.5,0.8-2.3,1.1c-0.8,0.2-1.6,0.4-2.4,0.4
	C58.9,53.1,57.2,52.5,56.1,51.1z"/>
</svg>
